<svg xmlns="http://www.w3.org/2000/svg"  viewBox="0 0 48 48" width="48px" height="48px" fill-rule="evenodd" clip-rule="evenodd" baseProfile="basic"><path fill="#ef4823" fill-rule="evenodd" d="M12.365,27.705	l-2.345-0.367l1.392-1.435c0.611-0.204,1.713-0.525,2.197-0.793l3.411,0.108l-2.485,1.771C14.441,26.99,12.782,27.607,12.365,27.705	z" clip-rule="evenodd"/><path fill="#ef4823" fill-rule="evenodd" d="M15.594,35.99	l-2.575-0.652l1.781-1.571c0.284-0.053,1.469-0.397,1.693-0.503l2.525,0.033l-1.732,2.217C17.271,35.533,15.777,35.947,15.594,35.99	z" clip-rule="evenodd"/><path fill="#ef4823" fill-rule="evenodd" d="M4.942,11.529	l-1.668,1.795l-0.087-2.076c0.057-1.003,1.676-5.568,2.217-6.188C5.812,4.59,6.2,3.953,6.628,3.47	c1.451-1.633,4.055-2.408,6.155-2.616c1.623-0.16,5.449,0.757,7.083,1.192c1.664,0.445,1.957,0.92,3.143,1.723l-2.584,6.055	L9.275,13.745c-0.129-1.668-0.585-3.033-2.481-3.111C6.168,10.61,5.356,11.418,4.942,11.529z" clip-rule="evenodd"/><path fill="#bfbd00" fill-rule="evenodd" d="M16.226,39.607	l-3.899-2.968l-0.867,4.325c0.011,0.125,0.672,1.909,0.728,1.985c1.711,0,3.333-0.4,4.7-1.257	C16.559,41.569,16.506,39.873,16.226,39.607z" clip-rule="evenodd"/><path fill="#ef4823" fill-rule="evenodd" d="M10.367,41.261	c-0.925-2.657-1.972-7.717-3.308-9.927c-0.609-1.005-1.239-5.456-1.423-6.916c-0.105-0.831,0.24-3.651,0.925-3.64	c3.541,0.049,7.432,11.575,8.671,14.924c0.149,0.4,1.215,3.22,1.291,3.311c-0.237-0.012-1.432,0.651-1.92,0.793	C13.862,40.021,10.791,40.91,10.367,41.261z" clip-rule="evenodd"/><path fill="#cbdb2d" d="M28.338,9.095c2.907,0.885,4.267,4.297,6.255,5.56	c3.605,2.292,8.089-1.949,9.399-1.952c2.123-0.004,3.947,4.433,3.177,5.428c-0.052,0.064-0.259,0.739-0.465,0.76	c-1.769,0.191-4.651-0.2-6.716-0.265c-0.573-0.019-1.108,0.383-1.624,0.531c-3.676,1.047-2.773,6.712-0.991,8.669	c0.129,0.143,0.932,1.968,1.025,2.252c0.012,0.117,0.265,1.287,0.264,1.289c-0.34,0.732-3.9,1.544-4.865,1.753	c-2.972,0.649-7.881,2.239-10.655,3.441c-0.785,0.34-2.489,1.685-3.508,1.392c-2.412-0.699-2.892-6.515-3.54-8.971	c-0.383-1.44-1.487-2.305-1.888-3.473c-0.416-1.217-0.932-2.388-1.323-3.441l-0.064-7.971l11.52-6.36L28.338,9.095z"/><path fill="#ef4823" fill-rule="evenodd" d="M16.986,31.963	l-0.297-0.085c-0.221-1.115-0.4-2.156-0.595-2.895c-0.031-0.112-0.065-0.221-0.103-0.327l0.333-0.235	c2.9-0.152,7.691-1.897,10.656-2.78c2.279-0.677,6.263-2.209,8.439-2.349l0.404,0.132c0.033,1.043,0.288,2.104,0.672,2.985	l-0.415,0.092c-2.788,0.215-6.799,2.424-9.563,2.879c-0.975,0.161-4.024,0.827-4.833,1.125	C20.258,31.035,18.458,31.778,16.986,31.963z" clip-rule="evenodd"/><path fill="#d6e5e5" fill-rule="evenodd" d="M17.914,35.205	l-0.421-0.117c-0.311-0.916-0.547-1.944-0.748-2.931l0.241-0.193c1.472-0.185,3.272-0.928,4.699-1.457	c0.809-0.299,3.859-0.964,4.833-1.125c2.764-0.455,6.775-2.664,9.563-2.879l0.467,0.024c0.236,0.515,0.517,0.963,0.825,1.3	c0.049,0.056,0.2,0.363,0.371,0.735l-0.404,0.257c-0.083,0.097-4.101,1.508-4.6,1.656c-1.972,0.588-4.317,0.861-6.288,1.655	C23.578,33.285,20.719,34.313,17.914,35.205z" clip-rule="evenodd"/><path fill="#ef4823" fill-rule="evenodd" d="M19.634,37.954	c-0.885-0.256-1.509-1.2-1.979-2.413l0.259-0.336c2.805-0.892,5.664-1.92,8.537-3.076c1.971-0.793,4.316-1.067,6.288-1.655	c0.499-0.148,4.517-1.559,4.6-1.656l0.524,0.005c0.24,0.532,0.485,1.107,0.535,1.255c0.012,0.117,0.265,1.287,0.264,1.289	c-0.34,0.732-3.9,1.544-4.865,1.753c-2.972,0.649-7.881,2.239-10.655,3.441C22.357,36.902,20.653,38.247,19.634,37.954z" clip-rule="evenodd"/><path fill="#010101" fill-rule="evenodd" d="M8.777,13.783	c-0.064-0.817-0.204-1.467-0.499-1.916c-0.267-0.407-0.696-0.7-1.504-0.733c-0.132-0.005-0.363,0.093-0.713,0.317	c-0.293,0.188-0.532,0.363-0.759,0.473l-0.069,0.027l-1.593,1.713c-0.301,0.324-0.847,0.123-0.865-0.32l-0.087-2.076v-0.049	c0.035-0.593,0.484-2.056,0.956-3.377C4.099,6.565,4.67,5.141,5.027,4.731c0.336-0.387,0.801-1.112,1.227-1.592	c1.576-1.776,4.336-2.569,6.48-2.783c1.74-0.171,5.663,0.781,7.26,1.207c1.772,0.475,2.175,1.033,3.295,1.792	c0.197,0.135,0.273,0.391,0.179,0.611l-2.584,6.055c-0.055,0.128-0.161,0.228-0.293,0.275L9.44,14.217	C9.131,14.326,8.802,14.111,8.777,13.783z M9.701,13.066l10.349-3.64l2.339-5.479l-0.085-0.06c-0.895-0.648-1.205-0.993-2.567-1.357	c-1.685-0.448-5.404-1.325-6.905-1.177c-2.056,0.203-4.504,0.959-5.829,2.449C6.584,4.273,6.235,4.866,5.78,5.389	C5.603,5.593,5.119,6.679,4.584,8.178c-0.429,1.204-0.779,2.363-0.875,2.905l-0.023,0.181l0.035,0.843l0.853-0.919	c0.064-0.068,0.145-0.117,0.237-0.141c0.024-0.008,0.096-0.04,0.243-0.133c0.181-0.115,0.241-0.161,0.467-0.307	c0.315-0.2,0.8-0.491,1.291-0.472c1.729,0.071,2.456,1.088,2.767,2.311L9.701,13.066z" clip-rule="evenodd"/><path fill="#d6e5e5" fill-rule="evenodd" d="M3.49,11.238	C3.62,11.21,3.78,11.19,3.982,11.181c1.36-0.059,1.964,2.032,1.787,3.343c-0.177,1.309-1.476,2.193-2.881,1.919	c-2.141-0.417-2.804-2.443-1.687-4.203c0.175-0.273,1.188-0.716,1.491-0.761C2.952,11.441,3.108,11.313,3.49,11.238z" clip-rule="evenodd"/><path fill="#010101" fill-rule="evenodd" d="M2.791,16.934	c-2.512-0.489-3.301-2.932-2.013-4.963c0.029-0.045,0.06-0.084,0.089-0.116c0.203-0.223,0.592-0.428,0.869-0.559	c0.297-0.14,0.655-0.279,0.88-0.312c0.181-0.027,0.356-0.155,0.772-0.236c0.16-0.035,0.348-0.056,0.571-0.067	c0.985-0.043,1.612,0.691,1.949,1.456c0.336,0.764,0.456,1.708,0.355,2.453C6.043,16.215,4.448,17.258,2.791,16.934z M5.272,14.457	c0.076-0.565-0.017-1.323-0.279-1.916c-0.257-0.585-0.609-0.876-0.991-0.86c-0.18,0.008-0.312,0.027-0.413,0.048	c-0.333,0.065-0.497,0.197-0.827,0.245C2.7,11.983,2.459,12.062,2.16,12.202c-0.231,0.108-0.401,0.211-0.492,0.276l-0.056,0.047	L1.46,12.791c-0.717,1.412-0.132,2.84,1.521,3.16C4.135,16.177,5.138,15.451,5.272,14.457z" clip-rule="evenodd"/><path fill="#010101" fill-rule="evenodd" d="M19.494,38.435	c-2.803-0.812-3.271-6.997-3.884-9.324c-0.377-1.417-1.425-2.121-1.877-3.439c-0.419-1.224-0.908-2.324-1.319-3.429	c-0.096-0.259,0.036-0.547,0.295-0.643c0.259-0.096,0.547,0.036,0.643,0.295c0.371,1.001,0.913,2.243,1.327,3.453	c0.331,0.963,1.501,2.011,1.899,3.508c0.604,2.287,1.159,8.028,3.196,8.617c0.739,0.213,2.475-1.069,3.169-1.371	c2.803-1.215,7.744-2.815,10.748-3.471c1.372-0.297,3.569-0.88,4.305-1.313l0.123-0.099l-0.076-0.364	c-0.031-0.148-0.063-0.301-0.088-0.428l-0.04-0.212l-0.051-0.135c-0.168-0.416-0.611-1.415-0.812-1.811l-0.08-0.144l-0.307-0.389	c-1.629-2.36-2.405-7.932,1.56-9.061c0.367-0.105,1.068-0.573,1.779-0.549c1.895,0.06,4.237,0.363,5.952,0.313l0.533-0.035	l0.076-0.143c0.039-0.093,0.08-0.204,0.164-0.371l0.044-0.067c0.163-0.211,0.096-1.272-0.555-2.556	c-0.624-1.232-1.487-2.068-2.227-2.067c-0.449,0.001-1.973,1.052-3.635,1.793c-1.769,0.789-4.005,1.371-6.033,0.081	c-2.135-1.356-3.396-4.671-6.132-5.504c-0.264-0.08-0.413-0.36-0.332-0.624c0.08-0.264,0.36-0.413,0.624-0.332	c3.059,0.932,4.585,4.479,6.377,5.616c1.577,1.003,3.385,0.609,5.088-0.151c1.657-0.739,3.2-1.877,4.041-1.879	c1.383-0.003,2.493,1.377,3.12,2.613c0.524,1.036,0.939,2.435,0.631,3.289l-0.143,0.279l-0.029,0.076	c-0.065,0.157-0.216,0.501-0.363,0.673c-0.061,0.072-0.212,0.229-0.451,0.253c-1.808,0.196-4.821-0.2-6.785-0.263	c-0.419-0.013-0.888,0.345-1.469,0.512c-3.081,0.877-2.439,6.008-0.695,7.937c0.213,0.323,0.971,2.055,1.067,2.347l0.021,0.1	c0.02,0.141,0.233,1.125,0.259,1.257c0.021,0.12,0,0.24-0.06,0.343l-0.06,0.096c-0.38,0.536-1.571,0.945-2.519,1.229	c-1.045,0.313-2.14,0.56-2.612,0.663c-2.94,0.643-7.817,2.221-10.561,3.412C22.642,37.323,20.781,38.806,19.494,38.435z" clip-rule="evenodd"/><path fill="#010101" fill-rule="evenodd" d="M45.713,19.235	c0.019,0.011-1.232-0.667-1.411-0.769c-0.693-0.4-1.416-1.36-1.86-2.336c-0.433-0.951-0.721-2.184-0.176-3.061	c0.145-0.235,0.453-0.307,0.688-0.161c0.235,0.145,0.307,0.453,0.161,0.688c-0.257,0.415-0.179,1.211,0.237,2.12	c0.404,0.888,1.015,1.633,1.452,1.885c0.159,0.093,1.377,0.752,1.384,0.756c0.243,0.131,0.333,0.435,0.201,0.677	C46.26,19.277,45.956,19.367,45.713,19.235z" clip-rule="evenodd"/><path fill="#febf10" fill-rule="evenodd" d="M6.062,26.83	l-0.088-0.049C5.819,25.81,5.7,24.931,5.636,24.418c-0.105-0.831,0.24-3.651,0.925-3.64c1.387,0.02,2.827,1.799,4.14,4.159	l-0.112,0.305C9.376,25.699,7.266,26.419,6.062,26.83z" clip-rule="evenodd"/><path fill="#d6e5e5" fill-rule="evenodd" d="M9.63,38.837	l0.193-0.039c1.803-0.704,3.649-1.335,5.4-1.855l0.431-0.127c0.36,0.948,0.82,2.139,0.869,2.196	c-0.237-0.012-1.432,0.651-1.92,0.793c-0.741,0.215-3.812,1.104-4.236,1.455C10.13,40.581,9.885,39.743,9.63,38.837z" clip-rule="evenodd"/><path fill="#010101" fill-rule="evenodd" d="M9.894,41.426	c-0.947-2.72-1.975-7.703-3.263-9.832c-0.368-0.607-0.695-2.124-0.936-3.459c-0.259-1.432-0.463-2.919-0.556-3.653	c-0.056-0.444-0.004-1.269,0.123-2.023c0.113-0.673,0.323-1.585,0.765-1.972c0.128-0.112,0.312-0.212,0.541-0.208	c2.183,0.029,4.168,3.403,5.643,6.509c1.583,3.332,2.876,7.08,3.489,8.74c0.151,0.404,1.012,2.681,1.221,3.165l0.031,0.067	c0.176,0.3-0.001,0.667-0.313,0.74l-0.079,0.009c-0.085,0.017-0.371,0.144-0.772,0.332c-0.345,0.163-0.772,0.364-1.047,0.445	c-0.367,0.105-1.293,0.375-2.189,0.661c-0.448,0.143-0.883,0.289-1.232,0.42c-0.377,0.141-0.584,0.24-0.645,0.287	C10.404,41.866,10.007,41.749,9.894,41.426z M12.249,39.995c0.909-0.291,1.849-0.563,2.215-0.669c0.179-0.052,0.515-0.208,0.9-0.389	c0.072-0.033,0.156-0.072,0.244-0.113l0.244-0.109l-0.047-0.116c-0.364-0.919-0.961-2.505-1.041-2.721	c-0.625-1.689-1.897-5.379-3.455-8.659c-0.78-1.641-1.619-3.153-2.468-4.252c-0.768-0.991-1.46-1.532-2.044-1.659l-0.153-0.016	c-0.107,0.161-0.275,0.615-0.395,1.333c-0.121,0.719-0.155,1.432-0.116,1.731c0.091,0.725,0.293,2.193,0.547,3.603	c0.268,1.479,0.568,2.723,0.807,3.117c1.212,2.005,2.163,6.145,3,8.924l0.172,0.556l0.059-0.024	C11.175,40.345,11.763,40.151,12.249,39.995z" clip-rule="evenodd"/><path fill="#010101" fill-rule="evenodd" d="M11.786,43.247	c-0.035-0.047-0.056-0.093-0.059-0.099c-0.068-0.139-0.256-0.635-0.391-1.003c-0.08-0.216-0.159-0.435-0.221-0.616	c-0.059-0.165-0.113-0.329-0.136-0.42c-0.003-0.013-0.013-0.055-0.017-0.103c-0.024-0.275,0.18-0.517,0.456-0.54	c0.24-0.02,0.456,0.133,0.521,0.357l0.016,0.068c0.023,0.071,0.056,0.171,0.104,0.308c0.06,0.173,0.137,0.387,0.216,0.6	c0.079,0.213,0.157,0.424,0.224,0.595l0.017,0.045l0.279-0.008c1.203-0.072,2.336-0.361,3.337-0.881l0.077-0.043l-0.02-0.065	c-0.013-0.047-0.025-0.091-0.035-0.133c-0.047-0.184-0.085-0.392-0.121-0.584c-0.037-0.197-0.071-0.377-0.108-0.532	c-0.031-0.127-0.056-0.203-0.077-0.253l-0.033-0.045c-0.135-0.191-0.12-0.455,0.047-0.631c0.191-0.201,0.507-0.209,0.707-0.02	c0.067,0.063,0.112,0.131,0.144,0.187c0.091,0.16,0.148,0.369,0.187,0.532c0.043,0.183,0.081,0.389,0.117,0.579	c0.036,0.196,0.071,0.375,0.109,0.527c0.02,0.084,0.039,0.145,0.053,0.188l0.016,0.043l0.049,0.045	c0.211,0.215,0.192,0.595-0.091,0.772c-1.46,0.916-3.179,1.333-4.965,1.333C12.029,43.45,11.879,43.375,11.786,43.247z" clip-rule="evenodd"/><path fill="#010101" fill-rule="evenodd" d="M22.522,42.391	c-0.181-0.017-0.329-0.032-0.471-0.035c-0.137-0.003-0.243,0.009-0.325,0.032c-0.237,0.068-0.488-0.048-0.593-0.275	c-0.049-0.109-0.087-0.244-0.116-0.371c-0.033-0.135-0.064-0.293-0.095-0.464c-0.059-0.343-0.116-0.756-0.165-1.171	c-0.048-0.416-0.088-0.839-0.115-1.204c-0.025-0.355-0.04-0.68-0.029-0.887c0.013-0.276,0.249-0.488,0.524-0.475	c0.276,0.013,0.488,0.249,0.475,0.524c-0.007,0.139,0.003,0.409,0.028,0.765c0.025,0.348,0.064,0.757,0.111,1.16	c0.048,0.403,0.103,0.796,0.157,1.115c0.013,0.08,0.028,0.155,0.045,0.244l0.116,0.005c0.189,0.004,0.383,0.024,0.548,0.04	c0.371,0.035,0.617,0.048,0.84-0.019c0.264-0.08,0.544,0.069,0.623,0.333c0.08,0.264-0.069,0.544-0.333,0.623	c-0.225,0.069-0.448,0.089-0.652,0.091C22.893,42.426,22.694,42.409,22.522,42.391z" clip-rule="evenodd"/><path fill="#010101" fill-rule="evenodd" d="M26.014,41.154	c0.005-0.2-0.023-0.573-0.08-1.053c-0.057-0.471-0.141-1.021-0.241-1.565c-0.1-0.547-0.216-1.08-0.337-1.519	c-0.127-0.465-0.243-0.756-0.317-0.868c-0.153-0.229-0.092-0.54,0.137-0.693c0.229-0.153,0.54-0.092,0.693,0.137	c0.18,0.268,0.329,0.716,0.452,1.16c0.129,0.475,0.252,1.039,0.356,1.601c0.139,0.759,0.252,1.555,0.307,2.171l0.137-0.025	c0.112-0.025,0.229-0.052,0.345-0.079c0.443-0.101,0.919-0.204,1.064-0.227c0.003-0.001,0.047-0.007,0.099-0.001	c0.275,0.028,0.475,0.273,0.448,0.548c-0.021,0.207-0.165,0.371-0.351,0.428l-0.075,0.016c-0.06,0.011-0.489,0.103-0.965,0.211	c-0.229,0.052-0.46,0.105-0.647,0.149c-0.203,0.049-0.323,0.081-0.347,0.089C26.366,41.765,26.005,41.513,26.014,41.154z" clip-rule="evenodd"/><path fill="#010101" fill-rule="evenodd" d="M31.351,39.602	l-0.057-0.009c-0.24-0.043-0.413-0.255-0.409-0.499c0-0.059-0.008-0.159-0.031-0.309c-0.023-0.145-0.055-0.32-0.097-0.517	c-0.083-0.396-0.196-0.865-0.315-1.356c-0.116-0.487-0.237-0.992-0.331-1.449c-0.093-0.448-0.167-0.88-0.18-1.212	c-0.011-0.275,0.204-0.508,0.48-0.519c0.275-0.011,0.508,0.204,0.519,0.48c0.009,0.24,0.068,0.603,0.16,1.049	c0.091,0.439,0.208,0.929,0.325,1.417c0.116,0.485,0.233,0.971,0.32,1.384c0.02,0.099,0.04,0.196,0.057,0.291l0.043,0.247	l0.051-0.004c0.129-0.009,0.273-0.023,0.419-0.039c0.195-0.021,0.385-0.048,0.544-0.076c0.144-0.024,0.227-0.045,0.267-0.056	l0.052-0.033c0.143-0.073,0.319-0.076,0.471,0.007c0.241,0.133,0.329,0.437,0.196,0.68c-0.065,0.117-0.16,0.18-0.195,0.203	c-0.048,0.029-0.093,0.051-0.128,0.064c-0.135,0.053-0.327,0.093-0.492,0.121c-0.184,0.032-0.396,0.061-0.604,0.084	c-0.208,0.023-0.417,0.041-0.597,0.052C31.653,39.61,31.475,39.615,31.351,39.602z" clip-rule="evenodd"/><path fill="#010101" fill-rule="evenodd" d="M35.971,37.043	c0-0.017-0.005-0.08-0.029-0.204c-0.023-0.115-0.056-0.257-0.099-0.423c-0.087-0.329-0.207-0.727-0.34-1.124	c-0.132-0.397-0.275-0.788-0.403-1.104c-0.065-0.157-0.124-0.292-0.176-0.397c-0.056-0.113-0.089-0.167-0.1-0.18l-0.055-0.071	c-0.123-0.197-0.093-0.46,0.083-0.627c0.2-0.189,0.517-0.18,0.707,0.02l0.053,0.061c0.139,0.179,0.289,0.512,0.413,0.815	c0.14,0.341,0.289,0.755,0.427,1.167c0.137,0.412,0.264,0.831,0.357,1.187c0.02,0.077,0.04,0.159,0.059,0.239l0.04,0.105	c0.293-0.052,0.647-0.116,1.004-0.181c0.355-0.064,0.711-0.131,0.993-0.185c0.315-0.059,0.46-0.089,0.529-0.108	c0.197-0.06,0.408-0.005,0.541,0.153c0.176,0.212,0.148,0.528-0.064,0.705c-0.055,0.044-0.105,0.067-0.116,0.072l-0.045,0.019	l-0.049,0.015c-0.099,0.028-0.351,0.077-0.607,0.127c-0.288,0.055-0.647,0.121-1.003,0.187c-0.707,0.129-1.423,0.256-1.549,0.275	c-0.289,0.045-0.545-0.167-0.573-0.443L35.971,37.043z" clip-rule="evenodd"/><path fill="#d6e5e5" fill-rule="evenodd" d="M9.26,17.823	c-0.159-0.325-0.26-0.6-0.283-0.787c-0.191-1.557,0.301-3.396,0.86-4.699c0.829-1.933,2.452-1.911,3.475-3.077	c1.891-2.161,9.043-7.207,12.444-4.599c0.953,0.732,1.175,1.252,1.852,2.183c2.748,3.777-3.152,4.2-5.327,4.799	c-1.015,0.279-2.384,1.297-3.111,2.052c-1.625,1.687-2.585,2.895-4.005,4.667c-0.536,0.672-0.771,2.007-1.223,2.747	c-0.281,0.46-0.575,0.451-1.16,0.628C11.953,21.989,9.996,19.349,9.26,17.823z" clip-rule="evenodd"/><path fill="#010101" fill-rule="evenodd" d="M26.493,17.362	c-0.203-0.352-0.189-0.805-0.004-1.223c0.049-0.113,0.113-0.22,0.193-0.312c0.239-0.272,0.583-0.36,0.896-0.237	c0.076,0.027,0.148,0.068,0.212,0.112c0.284,0.203,0.472,0.556,0.505,0.908c0.017,0.185-0.005,0.392-0.099,0.589	c-0.096,0.201-0.256,0.369-0.468,0.485c-0.064,0.036-0.132,0.065-0.203,0.087C27.097,17.903,26.695,17.714,26.493,17.362z" clip-rule="evenodd"/><path fill="#010101" fill-rule="evenodd" d="M30.321,16.894	c-0.084-0.051-0.148-0.113-0.195-0.168c-0.143-0.165-0.245-0.392-0.3-0.608c-0.053-0.215-0.081-0.503,0.017-0.773	c0.039-0.105,0.097-0.213,0.185-0.309c0.108-0.117,0.244-0.201,0.397-0.251c0.107-0.033,0.217-0.048,0.328-0.049	c0.165-0.003,0.321,0.043,0.453,0.131c0.128,0.084,0.219,0.196,0.281,0.307c0.137,0.245,0.167,0.54,0.137,0.792	c-0.031,0.252-0.133,0.548-0.359,0.763c-0.148,0.141-0.344,0.24-0.579,0.257C30.531,16.997,30.403,16.943,30.321,16.894z" clip-rule="evenodd"/><path fill="#010101" fill-rule="evenodd" d="M5.588,26.993	c-0.089-0.261,0.051-0.547,0.311-0.635c1.211-0.413,3.309-1.129,4.513-1.583c0.259-0.097,0.547,0.033,0.644,0.291	c0.097,0.259-0.033,0.547-0.291,0.644c-1.224,0.461-3.343,1.184-4.543,1.593C5.962,27.393,5.676,27.253,5.588,26.993z" clip-rule="evenodd"/><path fill="#010101" fill-rule="evenodd" d="M9.357,38.981	c-0.1-0.257,0.027-0.548,0.284-0.648c1.816-0.709,3.676-1.344,5.44-1.868c0.264-0.079,0.543,0.072,0.621,0.337	c0.079,0.264-0.072,0.543-0.337,0.621c-1.737,0.516-3.571,1.143-5.36,1.841C9.747,39.365,9.456,39.238,9.357,38.981z" clip-rule="evenodd"/><path fill="#010101" fill-rule="evenodd" d="M10.179,34.753	C9.81,34.09,9.328,32.951,9.22,32.167c-0.037-0.261,0.135-0.499,0.381-0.555l0.08-0.011c0.02-0.004,0.096-0.019,0.245-0.055	c0.129-0.031,0.285-0.069,0.447-0.109c0.16-0.039,0.324-0.079,0.464-0.112c0.125-0.028,0.267-0.06,0.365-0.069l0.096-0.005	l0.088,0.009c0.031,0.005,0.107,0.021,0.188,0.073c0.079,0.052,0.141,0.123,0.184,0.216c0.031,0.067,0.253,0.591,0.473,1.115	c0.112,0.264,0.224,0.531,0.312,0.745c0.083,0.2,0.156,0.377,0.18,0.443l0.017,0.06c0.083,0.327-0.177,0.64-0.515,0.62	c-0.219-0.013-0.332,0.039-0.536,0.147c-0.22,0.116-0.535,0.297-1.044,0.329C10.455,35.021,10.272,34.921,10.179,34.753z M11.223,33.795c0.092-0.048,0.193-0.101,0.325-0.16c-0.071-0.185-0.155-0.385-0.237-0.583c-0.112-0.267-0.223-0.527-0.309-0.731	l-0.043,0.004c-0.108,0.025-0.225,0.055-0.345,0.083c-0.079,0.02-0.159,0.04-0.237,0.06l-0.065,0.016l0.015,0.053	c0.056,0.189,0.127,0.396,0.209,0.607c0.08,0.209,0.168,0.415,0.256,0.607l0.112,0.196C11.014,33.907,11.107,33.857,11.223,33.795z M11.263,31.818l0.041-0.064l-0.047,0.023L11.263,31.818z" clip-rule="evenodd"/><path fill="#010101" fill-rule="evenodd" d="M8.096,34.241	c-0.143-0.236-0.069-0.544,0.167-0.688c0.117-0.071,0.255-0.12,0.36-0.155c0.112-0.037,0.24-0.072,0.347-0.103	c0.115-0.033,0.213-0.063,0.296-0.093c0.067-0.024,0.105-0.043,0.131-0.06c0.179-0.191,0.468-0.219,0.675-0.063	c0.219,0.167,0.261,0.481,0.095,0.701c-0.056,0.072-0.119,0.127-0.175,0.168c-0.123,0.089-0.267,0.151-0.38,0.192	c-0.121,0.045-0.252,0.083-0.365,0.116c-0.121,0.035-0.223,0.063-0.312,0.092c-0.097,0.031-0.139,0.052-0.149,0.059	C8.548,34.55,8.24,34.477,8.096,34.241z" clip-rule="evenodd"/><path fill="#010101" fill-rule="evenodd" d="M11.378,33.127	c-0.143-0.236-0.068-0.544,0.168-0.687l0.091-0.045c0.052-0.023,0.116-0.044,0.177-0.064c0.067-0.021,0.144-0.045,0.227-0.071	c0.168-0.049,0.368-0.107,0.563-0.16c0.193-0.053,0.384-0.105,0.533-0.144c0.14-0.037,0.259-0.069,0.396-0.091l0.085,0.001	c0.273,0.035,0.468,0.285,0.435,0.559c-0.027,0.205-0.175,0.367-0.389,0.427l-0.087,0.021c-0.047,0.012-0.109,0.029-0.183,0.048	c-0.147,0.04-0.333,0.089-0.525,0.143c-0.191,0.053-0.384,0.108-0.543,0.155c-0.079,0.024-0.148,0.045-0.203,0.063	c-0.045,0.016-0.073,0.025-0.079,0.024C11.828,33.438,11.521,33.363,11.378,33.127z" clip-rule="evenodd"/><path fill="#010101" fill-rule="evenodd" d="M17.437,35.357	c-0.084-0.263,0.063-0.544,0.325-0.628c2.793-0.888,5.64-1.912,8.501-3.063c2.019-0.813,4.405-1.096,6.333-1.671	c0.223-0.067,1.257-0.423,2.299-0.792c0.517-0.184,1.029-0.368,1.435-0.519c0.435-0.16,0.696-0.264,0.768-0.301	c0.189-0.097,0.405-0.079,0.564,0.055c0.211,0.179,0.236,0.493,0.057,0.704c-0.056,0.067-0.119,0.104-0.125,0.108l-0.057,0.032	c-0.129,0.067-0.465,0.195-0.859,0.341c-0.412,0.152-0.929,0.339-1.448,0.523c-1.031,0.365-2.095,0.732-2.349,0.808	c-2.004,0.597-4.323,0.865-6.243,1.639c-2.885,1.161-5.756,2.193-8.573,3.089C17.802,35.766,17.521,35.619,17.437,35.357z" clip-rule="evenodd"/><path fill="#010101" fill-rule="evenodd" d="M16.489,32.026	c-0.033-0.273,0.16-0.524,0.435-0.559c0.685-0.085,1.465-0.305,2.268-0.576c0.804-0.272,1.592-0.584,2.319-0.853	c0.444-0.164,1.441-0.411,2.417-0.633c0.988-0.224,2.007-0.433,2.508-0.516c1.317-0.217,2.957-0.86,4.679-1.505	c1.669-0.625,3.449-1.265,4.928-1.379c0.275-0.021,0.516,0.184,0.536,0.46c0.021,0.275-0.184,0.516-0.46,0.536	c-1.307,0.101-2.94,0.677-4.653,1.32c-1.633,0.612-3.423,1.316-4.865,1.553c-0.473,0.079-1.467,0.283-2.449,0.507	c-0.999,0.227-1.928,0.46-2.292,0.595c-0.7,0.26-1.525,0.584-2.347,0.863s-1.677,0.523-2.464,0.623	C16.774,32.494,16.523,32.301,16.489,32.026z" clip-rule="evenodd"/><path fill="#010101" fill-rule="evenodd" d="M15.825,28.449	c-0.015-0.276,0.197-0.511,0.473-0.525c2.811-0.147,7.52-1.861,10.54-2.76c2.3-0.684,6.289-2.224,8.548-2.369	c0.276-0.017,0.513,0.192,0.532,0.467c0.017,0.276-0.192,0.513-0.467,0.532c-1.019,0.065-2.507,0.464-4.064,0.951	c-1.531,0.479-3.119,1.039-4.265,1.379c-3,0.893-7.795,2.644-10.772,2.8C16.074,28.937,15.839,28.725,15.825,28.449z" clip-rule="evenodd"/><path fill="#010101" fill-rule="evenodd" d="M10.937,26.062	c-0.088-0.261,0.053-0.545,0.316-0.632c0.311-0.104,0.735-0.233,1.144-0.372c0.203-0.069,0.396-0.137,0.567-0.204	c0.173-0.068,0.309-0.129,0.403-0.181c0.241-0.133,0.545-0.045,0.68,0.196c0.133,0.241,0.045,0.545-0.196,0.68	c-0.291,0.16-0.732,0.321-1.133,0.456c-0.416,0.141-0.849,0.273-1.148,0.373C11.307,26.466,11.023,26.325,10.937,26.062z" clip-rule="evenodd"/><path fill="#010101" fill-rule="evenodd" d="M11.877,27.819	c-0.063-0.269,0.105-0.539,0.373-0.601c0.072-0.016,0.217-0.06,0.425-0.129c0.197-0.065,0.428-0.144,0.656-0.224	c0.227-0.079,0.452-0.157,0.635-0.22c0.091-0.032,0.173-0.06,0.243-0.081c0.061-0.021,0.127-0.041,0.176-0.055l0.045-0.009	c0.012-0.003,0.049-0.009,0.096-0.009c0.276-0.004,0.504,0.216,0.507,0.492c0.003,0.243-0.165,0.447-0.409,0.5	c-0.023,0.007-0.053,0.015-0.104,0.031c-0.061,0.02-0.139,0.047-0.228,0.077c-0.18,0.061-0.401,0.14-0.632,0.22	c-0.228,0.079-0.465,0.16-0.669,0.228c-0.197,0.065-0.387,0.125-0.512,0.155C12.209,28.255,11.939,28.087,11.877,27.819z" clip-rule="evenodd"/><path fill="#010101" fill-rule="evenodd" d="M14.309,33.861	c-0.051-0.272,0.128-0.533,0.399-0.584c0.049-0.009,0.157-0.036,0.315-0.077c0.151-0.04,0.328-0.091,0.504-0.143	c0.176-0.052,0.349-0.104,0.491-0.151c0.071-0.023,0.132-0.044,0.18-0.061l0.084-0.032c0.251-0.117,0.548-0.009,0.665,0.24	c0.117,0.251,0.009,0.548-0.243,0.667c-0.1,0.047-0.264,0.101-0.377,0.137c-0.153,0.051-0.336,0.107-0.517,0.16	c-0.184,0.053-0.368,0.105-0.528,0.148c-0.152,0.041-0.296,0.077-0.388,0.095C14.621,34.31,14.359,34.131,14.309,33.861z" clip-rule="evenodd"/><path fill="#010101" fill-rule="evenodd" d="M15.106,36.105	c-0.063-0.269,0.105-0.539,0.373-0.601c0.027-0.005,0.115-0.028,0.296-0.077c0.151-0.041,0.339-0.093,0.528-0.145	c0.188-0.052,0.375-0.105,0.524-0.148c0.076-0.021,0.14-0.04,0.191-0.055l0.093-0.029c0.181-0.063,0.375-0.028,0.515,0.1	c0.203,0.187,0.215,0.504,0.028,0.707c-0.045,0.049-0.091,0.077-0.101,0.084l-0.079,0.041l-0.04,0.015	c-0.032,0.011-0.081,0.025-0.132,0.041c-0.055,0.016-0.123,0.035-0.199,0.057c-0.153,0.044-0.343,0.097-0.532,0.149	c-0.191,0.053-0.38,0.105-0.535,0.148c-0.148,0.04-0.275,0.073-0.329,0.087C15.438,36.541,15.169,36.373,15.106,36.105z" clip-rule="evenodd"/><path fill="#010101" fill-rule="evenodd" d="M13.179,47.442	c-0.219-0.168-0.26-0.483-0.092-0.701c0.043-0.055,0.099-0.168,0.152-0.361c0.051-0.185,0.089-0.409,0.12-0.657	c0.029-0.247,0.048-0.507,0.063-0.761c0.013-0.255,0.021-0.497,0.031-0.716c0.011-0.276,0.243-0.491,0.519-0.48	c0.276,0.011,0.491,0.243,0.48,0.519c-0.016,0.412-0.033,1.011-0.1,1.559c-0.032,0.275-0.079,0.552-0.148,0.803	c-0.067,0.243-0.165,0.5-0.323,0.705C13.713,47.569,13.398,47.61,13.179,47.442z" clip-rule="evenodd"/><path fill="#010101" fill-rule="evenodd" d="M19.471,47.158	c-0.941-0.471-1.495-1.073-1.929-1.72c-0.413-0.617-0.709-1.256-1.161-1.891c-0.16-0.225-0.108-0.537,0.117-0.697	c0.225-0.16,0.537-0.108,0.697,0.117c0.484,0.68,0.799,1.351,1.177,1.915c0.363,0.539,0.793,1.005,1.545,1.381	c0.247,0.124,0.347,0.424,0.224,0.671C20.018,47.181,19.718,47.281,19.471,47.158z" clip-rule="evenodd"/><path fill="#010101" fill-rule="evenodd" d="M16.067,47.533	c-0.089-0.245-0.176-0.515-0.259-0.789c-0.084-0.273-0.168-0.563-0.251-0.845c-0.171-0.576-0.341-1.129-0.533-1.595	c-0.105-0.255,0.016-0.548,0.271-0.653c0.255-0.105,0.548,0.016,0.653,0.271c0.216,0.521,0.399,1.123,0.568,1.693	c0.085,0.291,0.167,0.569,0.248,0.839c0.081,0.268,0.161,0.516,0.243,0.737c0.095,0.259-0.039,0.547-0.299,0.641	C16.45,47.926,16.162,47.793,16.067,47.533z" clip-rule="evenodd"/><path fill="#010101" fill-rule="evenodd" d="M10.493,20.635	c-0.668-0.823-1.315-1.831-1.683-2.593c-0.161-0.331-0.296-0.669-0.329-0.944c-0.205-1.683,0.323-3.616,0.897-4.956	c0.895-2.087,2.691-2.22,3.557-3.211c1.839-2.101,9.327-7.579,13.125-4.665c1.028,0.789,1.312,1.407,1.952,2.285	c1.603,2.204,0.629,3.576-1.011,4.339c-1.445,0.672-3.625,0.971-4.588,1.236c-0.891,0.244-2.184,1.191-2.883,1.917	c-1.608,1.668-2.556,2.86-3.976,4.632c-0.479,0.6-0.643,1.805-1.187,2.695c-0.407,0.667-0.969,0.703-1.441,0.845	c-0.101,0.031-0.201,0.041-0.297,0.039C11.905,22.229,11.094,21.375,10.493,20.635z M13.517,20.849	c0.388-0.636,0.661-2.051,1.259-2.799c1.42-1.772,2.392-2.996,4.035-4.701c0.755-0.783,2.2-1.873,3.339-2.187	c1.212-0.333,3.069-0.545,4.431-1.179c1.171-0.544,1.781-1.255,0.624-2.844c-0.715-0.983-0.873-1.405-1.752-2.08	c-2.992-2.295-9.829,2.321-11.763,4.532c-1.151,1.311-2.635,1.18-3.392,2.944c-0.543,1.265-0.999,3.009-0.823,4.441	c0.012,0.099,0.08,0.309,0.236,0.629c0.331,0.685,0.932,1.627,1.559,2.399c0.529,0.652,0.961,1.027,1.211,1.175l0.181,0.073	l0.208-0.061C13.345,21.057,13.379,21.071,13.517,20.849z" clip-rule="evenodd"/></svg>